<?xml version="1.0" encoding="UTF-8" standalone="no"?>
<svg
   width="100"
   height="86.6"
   viewBox="0 0 100 86.6"
   version="1.1"
   id="forest-37"
   xmlns="http://www.w3.org/2000/svg"
   xmlns:svg="http://www.w3.org/2000/svg">
  <defs
     id="defs54244" />
  <path
     id="hexagone"
     style="fill: #ffffff;stroke: #ffffff;stroke-width:param(outline-width)0.3;stroke-linecap:round;stroke-linejoin:round;stop-color:#000000;fill-opacity:1"
     d="M 25,28.9 50,14.43 69.053283,32.927491 75,57.7 50,72.17 42.200678,65.912501 29.575283,65.283237 25,57.7 Z" />
  <path
     style="fill: #ffffff;stroke: #000000;stroke-width:param(outline-width)1px;stroke-linecap:butt;stroke-linejoin:round;stroke-opacity:1;fill-opacity:1"
     d="m 50,14.43 c 0,0 15.366157,5.830186 15.964567,6.260963 0.598411,0.430777 4.347368,10.285291 4.347368,10.285291 0,0 8.282696,8.256661 8.71194,11.105578 C 79.453119,44.930748 75,57.7 75,57.7"
     id="path54359" />
  <path
     style="fill:none;stroke: #000000;stroke-width:param(outline-width)1px;stroke-linecap:butt;stroke-linejoin:round;stroke-opacity:1"
     d="m 25,57.7 4.575283,7.583237 c 0,0 11.545852,0.112125 12.465436,0.831922 C 42.960303,66.834957 50,72.2 50,72.2"
     id="path54361" />
</svg>
