<?xml version="1.0" encoding="UTF-8" standalone="no"?>
<svg
   width="100"
   height="86.6"
   viewBox="0 0 100 86.6"
   version="1.1"
   id="forest-40"
   xmlns="http://www.w3.org/2000/svg"
   xmlns:svg="http://www.w3.org/2000/svg">
  <defs
     id="defs14" />
  <path
     id="hexagone"
     style="fill: #ffffff;stroke: #ffffff;stroke-width:param(outline-width)0.3;stroke-linecap:round;stroke-linejoin:round;stop-color:#000000;fill-opacity:1"
     d="M 25,28.9 50,14.43 75,28.9 V 57.7 L 50,72.17 33.378852,49.600443 Z" />
  <path
     style="fill: #ffffff;stroke: #000000;stroke-width:param(outline-width)1;stroke-linecap:round;stroke-linejoin:round;stroke-opacity:1;stop-color:#000000"
     d="m 75.130376,28.767393 c 0,0 0.507764,-2.35827 -3.960958,-6.268401 -4.468721,-3.910131 -14.523344,-1.955065 -14.523344,-1.955065 0,0 -1.11718,-4.468722 -12.288983,-4.468722 -11.171803,0 -15.468197,15.000131 -15.468197,15.000131 0,0 -8.116499,0.575532 -8.954384,7.837204 -0.837886,7.261672 7.219067,10.243394 7.219067,10.243394 0,0 -9.557987,0.837885 -10.675167,6.423787 -1.117181,5.585901 10.613213,18.433475 16.478409,20.388541 5.865197,1.955065 18.712771,-4.748017 18.712771,-4.748017"
     id="path297" />
</svg>
