<?xml version="1.0" encoding="UTF-8" standalone="no"?>
<svg
   width="100"
   height="86.6"
   viewBox="0 0 100 86.6"
   version="1.1"
   id="forest-12"
   xmlns="http://www.w3.org/2000/svg"
   xmlns:svg="http://www.w3.org/2000/svg">
  <defs
     id="defs36332" />
  <path
     id="hexagone"
     style="fill: #ffffff;fill-opacity:1;stroke: #ffffff;stroke-width:param(outline-width)0.3;stroke-linecap:round;stroke-linejoin:round;stop-color:#000000"
     d="M 25,28.9 49.509511,20.484135 75,28.9 V 57.7 L 58.059295,59.020199 46.790604,65.21407 25,57.7 Z" />
  <path
     style="fill: #ffffff;stroke: #000000;stroke-width:param(outline-width)1px;stroke-linecap:butt;stroke-linejoin:round;stroke-opacity:1;fill-opacity:1"
     d="m 75,28.9 c 0,0 -8.979851,-9.336897 -12.493646,-10.399504 -3.513794,-1.062608 -12.996843,1.983639 -12.996843,1.983639 0,0 -0.01832,-4.610937 -4.378753,-5.257615 C 40.770324,14.579843 31.72434,20.476783 31.535779,23.289741 31.347218,26.1027 25,28.9 25,28.9"
     id="path36447" />
  <path
     style="fill: #ffffff;stroke: #000000;stroke-width:param(outline-width)1px;stroke-linecap:butt;stroke-linejoin:round;stroke-opacity:1;fill-opacity:1"
     d="m 25,57.7 c 0,0 7.447379,4.890578 7.433775,7.699344 -0.0136,2.808767 11.278983,-0.09844 11.278983,-0.09844 l 5.861373,3.209644 9.116669,-9.362527 c 0,0 5.037789,7.339114 8.751128,5.544189 C 71.155267,62.897282 75,57.7 75,57.7"
     id="path36449" />
  <path
     style="fill: #ffffff;stroke: #000000;stroke-width:param(outline-width)1px;stroke-linecap:butt;stroke-linejoin:round;stroke-opacity:1;fill-opacity:1"
     d="m 46.790604,65.21407 c 0,0 -3.328741,19.743534 -2.789923,19.743534 0.538818,0 10.047093,0.191842 10.047093,0.191842 L 52.666721,62.600938"
     id="path36451" />
</svg>
