<?xml version="1.0" encoding="UTF-8" standalone="no"?>
<svg
   width="100"
   height="86.6"
   viewBox="0 0 100 86.6"
   version="1.1"
   id="forest-24"
   xmlns="http://www.w3.org/2000/svg"
   xmlns:svg="http://www.w3.org/2000/svg">
  <defs
     id="defs42740" />
  <path
     id="hexagone"
     style="fill: #ffffff;fill-opacity:1;stroke: #ffffff;stroke-width:param(outline-width)0.3;stroke-linecap:round;stroke-linejoin:round;stop-color:#000000"
     d="M 29.284226,39.715101 48.051957,21.431038 75,28.9 V 57.7 L 50,72.17 25,57.7 Z" />
  <path
     style="fill: #ffffff;stroke: #000000;stroke-width:param(outline-width)1px;stroke-linecap:butt;stroke-linejoin:round;stroke-opacity:1;fill-opacity:1"
     d="m 75,28.9 c 0,0 -6.571314,-10.94105 -9.521194,-11.799539 -2.949881,-0.858488 -13.496012,0.517872 -13.496012,0.517872 l -3.930837,3.812705 c 0,0 -7.709476,-3.87646 -11.315254,-2.91445 -3.605779,0.962011 -9.769751,13.636606 -9.769751,13.636606 l 2.317274,7.561907 c 0,0 -5.737695,10.416931 -5.736205,11.24064 C 23.549511,51.77945 25,57.73 25,57.73"
     id="path42855" />
  <path
     style="fill: #ffffff;stroke: #000000;stroke-width:param(outline-width)1px;stroke-linecap:butt;stroke-linejoin:round;stroke-opacity:1;fill-opacity:1"
     d="m 75,57.7 c 0,0 -9.425044,7.687666 -10.016971,9.741142 C 64.391103,69.494618 50,72.2 50,72.2"
     id="path42857" />
</svg>
