<?xml version="1.0" encoding="UTF-8" standalone="no"?>
<svg
   width="100"
   height="86.6"
   viewBox="0 0 100 86.6"
   version="1.1"
   id="forest-9"
   xmlns="http://www.w3.org/2000/svg"
   xmlns:svg="http://www.w3.org/2000/svg">
  <defs
     id="defs35177" />
  <path
     style="fill: #ffffff;stroke: #000000;stroke-width:param(outline-width)1px;stroke-linecap:butt;stroke-linejoin:round;stroke-opacity:1;fill-opacity:1"
     d="m 46.327554,63.922976 -1.953439,21.500561 11.032404,-0.0026 -3.286665,-22.107062"
     id="path35296" />
  <path
     id="hexagone"
     style="fill: #ffffff;fill-opacity:1;stroke: #ffffff;stroke-width:param(outline-width)0.3;stroke-linecap:round;stroke-linejoin:round;stop-color:#000000"
     d="M 25,28.9 50,14.43 75,28.9 V 57.7 L 49.737581,65.729026 31.70843,54.833786 Z" />
  <path
     style="fill: #ffffff;stroke: #000000;stroke-width:param(outline-width)1px;stroke-linecap:butt;stroke-linejoin:round;stroke-opacity:1;fill-opacity:1"
     d="m 50,14.4 c 0,0 12.515295,2.989233 15.188455,4.958182 C 67.861616,21.32713 75,28.9 75,28.9 l 0.816079,5.040747"
     id="path35292" />
  <path
     style="fill: #ffffff;stroke: #000000;stroke-width:param(outline-width)1px;stroke-linecap:butt;stroke-linejoin:round;stroke-opacity:1;fill-opacity:1"
     d="m 25,28.87 -2.575329,15.57929 c 0,0 4.522167,7.301007 6.159917,8.897075 1.637751,1.596068 3.123842,1.487421 3.123842,1.487421 0,0 -3.515484,5.846368 -1.722229,8.134686 1.793255,2.288317 14.783666,4.325982 14.783666,4.325982 l 3.599694,-2.279835 c 0,0 8.62422,2.194282 11.565612,1.07907 2.941393,-1.115212 6.036462,-5.890173 7.341492,-6.236752 C 68.581695,59.510357 75,57.7 75,57.7"
     id="path35294" />
</svg>
