<?xml version="1.0" encoding="UTF-8" standalone="no"?>
<svg
   width="100"
   height="86.6"
   viewBox="0 0 100 86.6"
   version="1.1"
   id="forest-34"
   xmlns="http://www.w3.org/2000/svg"
   xmlns:svg="http://www.w3.org/2000/svg">
  <defs
     id="defs16179" />
  <path
     id="hexagone"
     style="fill: #ffffff;stroke: #ffffff;stroke-width:param(outline-width)0.3;stroke-linecap:round;stroke-linejoin:round;stop-color:#000000;fill-opacity:1"
     d="M 29.393062,29.722154 50,14.43 75,28.9 V 57.7 L 50,72.17 36.664861,52.328665 Z" />
  <path
     style="fill: #ffffff;stroke: #000000;stroke-width:param(outline-width)1px;stroke-linecap:butt;stroke-linejoin:round;stroke-opacity:1"
     d="m 50,14.4 c 0,0 -10.34612,0.380188 -15.693096,3.386865 C 28.959928,20.793542 25,28.9 25,28.9 c 0,0 3.75329,7.521116 4.929303,8.589818"
     id="path16233" />
  <path
     style="fill: #ffffff;stroke: #000000;stroke-width:param(outline-width)1px;stroke-linecap:butt;stroke-linejoin:round;stroke-opacity:1"
     d="m 30.557352,34.718733 c 0,0 -6.232109,12.700637 -4.480213,18.297944 1.751897,5.597308 17.159747,9.491649 17.159747,9.491649 L 50,72.2"
     id="path16235" />
  <path
     style="fill: #ffffff;stroke: #000000;stroke-width:param(outline-width)1px;stroke-linecap:butt;stroke-linejoin:round;stroke-opacity:1"
     d="m 75,28.9 c 0,0 1.722491,10.912312 2.787984,13.617554 C 78.853477,45.222795 75,57.7 75,57.7"
     id="path16237" />
</svg>
