<?xml version="1.0" encoding="UTF-8" standalone="no"?>
<svg
   width="100"
   height="86.6"
   viewBox="0 0 100 86.6"
   version="1.1"
   id="forest-22"
   xmlns="http://www.w3.org/2000/svg"
   xmlns:svg="http://www.w3.org/2000/svg">
  <defs
     id="defs2083" />
  <path
     id="hexagone"
     style="fill: #ffffff;fill-opacity:1;stroke: #ffffff;stroke-width:param(outline-width)0.3;stroke-linecap:round;stroke-linejoin:round;stop-color:#000000"
     d="M 25,28.9 40.46069,18.012087 50,14.43 75,28.9 71.523257,49.33154 50,72.17 25,57.7 Z" />
  <path
     style="fill: #ffffff;stroke: #000000;stroke-width:param(outline-width)1.01337px;stroke-linecap:butt;stroke-linejoin:round;stroke-opacity:1"
     d="M 56.338504,66.661115 58.349569,84.899519 51.802073,83.900031 52.049418,71.789426 55.084752,68.4081 Z"
     id="path2397" />
  <path
     style="fill: #ffffff;stroke: #000000;stroke-width:param(outline-width)1px;stroke-linecap:butt;stroke-linejoin:round;stroke-opacity:1"
     d="m 50,14.43 c 0,0 -6.797783,-1.128134 -11.283136,0.959012 C 34.231512,17.476159 33.213187,25.975584 25,28.9"
     id="path2137" />
  <path
     style="fill: #ffffff;stroke: #000000;stroke-width:param(outline-width)1px;stroke-linecap:butt;stroke-linejoin:round;stroke-opacity:1"
     d="m 75,28.9 c 0,0 2.532754,7.003089 3.468525,10.993543 0.935771,3.990454 -9.219108,15.070885 -9.219108,15.070885"
     id="path2172" />
  <path
     style="fill: #ffffff;stroke: #000000;stroke-width:param(outline-width)1px;stroke-linecap:butt;stroke-linejoin:round;stroke-opacity:1"
     d="m 70.924169,47.948877 c 0,0 5.873389,13.649805 0.168313,18.843321 C 65.387405,71.985715 50,72.17 50,72.17"
     id="path2174" />
</svg>
