<?xml version="1.0" encoding="UTF-8" standalone="no"?>
<svg
   width="100"
   height="86.6"
   viewBox="0 0 100 86.6"
   version="1.1"
   id="forest-18"
   xmlns="http://www.w3.org/2000/svg"
   xmlns:svg="http://www.w3.org/2000/svg">
  <defs
     id="defs23259" />
  <path
     id="hexagone"
     style="fill: #ffffff;fill-opacity:1;stroke: #ffffff;stroke-width:param(outline-width)0.3;stroke-linecap:round;stroke-linejoin:round;stop-color:#000000"
     d="M 28.924221,30.282255 50,14.43 75,28.9 63.455124,54.11283 50,72.17 25,57.7 Z" />
  <path
     style="fill: #ffffff;stroke: #000000;stroke-width:param(outline-width)1px;stroke-linecap:butt;stroke-linejoin:round;stroke-opacity:1;fill-opacity:1"
     d="m 50,14.4 c 0,0 -11.824056,1.171152 -15.486608,2.463302 C 30.850839,18.155452 25,28.9 25,28.9 c 0,0 -4.175592,1.208884 -5.115268,6.863983 -0.939676,5.6551 8.874178,13.488274 8.874178,13.488274"
     id="path23454" />
  <path
     style="fill: #ffffff;stroke: #000000;stroke-width:param(outline-width)1px;stroke-linecap:butt;stroke-linejoin:round;stroke-opacity:1;fill-opacity:1"
     d="m 27.136184,44.080952 c 0,0 -5.641357,8.02122 -2.136184,13.649048"
     id="path23456" />
  <path
     style="fill: #ffffff;stroke: #000000;stroke-width:param(outline-width)1px;stroke-linecap:butt;stroke-linejoin:round;stroke-opacity:1;fill-opacity:1"
     d="M 71.925825,26.917351 75,28.9 c 0,0 2.588466,10.307869 2.727524,15.635524 0.139057,5.327654 -16.210103,14.203731 -16.210103,14.203731"
     id="path23458" />
  <path
     style="fill: #ffffff;stroke: #000000;stroke-width:param(outline-width)1px;stroke-linecap:butt;stroke-linejoin:round;stroke-opacity:1;fill-opacity:1"
     d="m 63.455124,54.11283 c -0.107311,0.440804 0.263798,6.231002 -0.867068,8.22779 C 61.45719,64.337408 50,72.17 50,72.17"
     id="path23460" />
  <path
     style="fill: #ffffff;stroke: #000000;stroke-width:param(outline-width)1px;stroke-linecap:butt;stroke-linejoin:round;stroke-opacity:1;fill-opacity:1"
     d="m 53.954693,68.760556 0.411291,9.233575 3.849521,-1.067478 0.29299,1.824137 -3.586235,1.972011 0.262167,4.8284 -6.650422,-0.343246 0.232228,-15.601814"
     id="path23462" />
</svg>
