<?xml version="1.0" encoding="UTF-8" standalone="no"?>
<svg
   width="100"
   height="86.6"
   viewBox="0 0 100 86.6"
   version="1.1"
   id="forest-10"
   xmlns="http://www.w3.org/2000/svg"
   xmlns:svg="http://www.w3.org/2000/svg">
  <defs
     id="defs14" />
  <path
     id="hexagone"
     style="fill: #ffffff;stroke: #ffffff;stroke-width:param(outline-width)0.3;stroke-linecap:round;stroke-linejoin:round;stop-color:#000000;fill-opacity:1"
     d="M 38.62691,22.580274 50,14.43 75,28.9 V 57.7 L 50.592474,63.282885 34.479589,50.985291 Z" />
  <path
     style="fill: #ffffff;stroke-width:param(outline-width)1;stroke-linecap:round;stroke-linejoin:round;stop-color:#000000;stroke: #000000;stroke-opacity:1"
     d="m 51.742758,13.62691 c 0,0 -11.454503,1.974914 -15.601824,4.344811 -4.14732,2.369898 -1.579931,15.00935 -1.579931,15.00935"
     id="path297" />
  <path
     style="fill: #ffffff;stroke: #000000;stroke-width:param(outline-width)1;stroke-linecap:round;stroke-linejoin:round;stroke-opacity:1;stop-color:#000000"
     d="m 53.125199,61.814822 -1.382441,15.00935 h 6.912201 l -1.38244,-16.39179 z"
     id="path1006" />
  <path
     style="fill: #ffffff;stroke: #000000;stroke-width:param(outline-width)1;stroke-linecap:round;stroke-linejoin:round;stroke-opacity:1;stop-color:#000000"
     d="m 36.9309,29.623717 c 0,0 -8.492132,5.924743 -9.282098,8.29464 -0.789966,2.369897 3.949829,18.564196 6.319727,21.526567 2.369897,2.962372 7.702166,2.172407 7.702166,2.172407 0,0 4.344811,6.122234 7.307183,5.924743 2.962372,-0.197492 8.05516,0.995235 9.084607,-3.357355 5.924743,3.357355 14.416875,-4.739794 16.984264,-6.714709"
     id="path908" />
</svg>
