<?xml version="1.0" encoding="UTF-8" standalone="no"?>
<svg
   width="100"
   height="86.6"
   viewBox="0 0 100 86.6"
   version="1.1"
   id="forest-20"
   xmlns="http://www.w3.org/2000/svg"
   xmlns:svg="http://www.w3.org/2000/svg">
  <defs
     id="defs40838" />
  <path
     id="hexagone"
     style="fill: #ffffff;fill-opacity:1;stroke: #ffffff;stroke-width:param(outline-width)0.3;stroke-linecap:round;stroke-linejoin:round;stop-color:#000000"
     d="M 25,28.9 52.396187,21.256403 67.458407,29.383997 67.346891,52.922544 50,72.17 25,57.7 Z" />
  <path
     style="fill: #ffffff;stroke: #000000;stroke-width:param(outline-width)1px;stroke-linecap:butt;stroke-linejoin:round;stroke-opacity:1;fill-opacity:1"
     d="m 54.702621,64.707331 1.410416,19.410648 -6.948881,-0.01005 0.555386,-18.578437"
     id="path40955" />
  <path
     style="fill: #ffffff;stroke: #000000;stroke-width:param(outline-width)1px;stroke-linecap:butt;stroke-linejoin:round;stroke-opacity:1;fill-opacity:1"
     d="M 49.33893,68.316882 55.277263,67.178 c 0,0 9.96116,-7.64187 12.839105,-10.286369 2.877945,-2.644499 2.034784,-12.151893 2.034784,-12.151893 l -2.625053,-2.381369 4.215914,-13.365587 c 0,0 -7.408142,-10.172177 -9.051362,-10.592746 -1.64322,-0.420569 -10.294464,2.856367 -10.294464,2.856367 0,0 -1.047586,-1.222229 -3.326884,-3.08328 C 46.790005,16.312072 37.215417,17.31526 37.215417,17.31526 L 25,28.9 24.029041,32.287444"
     id="path40953" />
</svg>
