<?xml version="1.0" encoding="UTF-8" standalone="no"?>
<svg
   width="100"
   height="86.6"
   viewBox="0 0 100 86.6"
   version="1.1"
   id="forest-0"
   xmlns="http://www.w3.org/2000/svg"
   xmlns:svg="http://www.w3.org/2000/svg">
  <defs
     id="defs12" />
  <path
     id="hexagone"
     style="fill: #ffffff;fill-opacity:1;stroke: #ffffff;stroke-width:param(outline-width)0.3;stroke-linecap:round;stroke-linejoin:round;stop-color:#000000"
     d="M 25,28.9 50,14.43 68.666344,30.062049 67.692817,54.342645 45.028049,63.987228 27.980101,55.015849 28.861442,44.037186 Z" />
  <path
     style="fill: #ffffff;stroke: #000000;stroke-width:param(outline-width)1;stroke-linecap:round;stroke-linejoin:round;stroke-opacity:1;stop-color:#000000"
     d="m 45.818015,66.554617 -1.777423,17.379247 h 8.689624 l -1.38244,-5.727252 6.319726,-2.962372 -6.517218,0.789966 -0.789966,-11.454504 z"
     id="path855" />
  <path
     style="fill: #ffffff;stroke: #000000;stroke-width:param(outline-width)1;stroke-linecap:round;stroke-linejoin:round;stroke-opacity:1;stop-color:#000000"
     d="m 48.187913,67.147091 c 0,0 -8.689624,4.542303 -16.194299,1.777423 -7.504675,-2.76488 -2.76488,-10.862029 -2.76488,-10.862029 0,0 -4.147321,-1.579932 -4.542303,-7.504675 -0.394983,-5.924744 7.307183,-10.86203 7.307183,-10.86203"
     id="path295" />
  <path
     style="fill: #ffffff;stroke: #000000;stroke-width:param(outline-width)1;stroke-linecap:round;stroke-linejoin:round;stroke-opacity:1;stop-color:#000000"
     d="m 35.745951,45.028049 c 0,0 -13.034435,0.197492 -12.441961,-8.492132 0.592475,-8.689623 7.109692,-12.639452 7.109692,-12.639452 0,0 5.134778,-9.47959 15.00935,-11.257013 9.874572,-1.777423 14.219384,9.084607 14.219384,9.084607 0,0 4.739795,-5.134777 12.441961,0.592475 7.702166,5.727252 -1.974914,19.354161 -1.974914,19.354161"
     id="path851" />
  <path
     style="fill: #ffffff;stroke: #000000;stroke-width:param(outline-width)1;stroke-linecap:round;stroke-linejoin:round;stroke-opacity:1;stop-color:#000000"
     d="m 70.504446,34.561003 c 0,0 11.849486,10.862029 9.282098,15.996807 -2.567389,5.134777 -9.084607,11.257012 -13.824402,10.862029 -4.739794,-0.394983 -3.554846,4.344812 -6.319726,6.912201 -2.76488,2.567389 -14.614367,-4.344812 -14.614367,-4.344812"
     id="path853" />
</svg>
