<?xml version="1.0" encoding="UTF-8" standalone="no"?>
<svg
   width="100"
   height="86.6"
   viewBox="0 0 100 86.6"
   version="1.1"
   id="forest-21"
   xmlns="http://www.w3.org/2000/svg"
   xmlns:svg="http://www.w3.org/2000/svg">
  <defs
     id="defs15" />
  <path
     id="hexagone"
     style="fill: #ffffff;fill-opacity:1;stroke: #ffffff;stroke-width:param(outline-width)0.3;stroke-linecap:round;stroke-linejoin:round;stop-color:#000000"
     d="M 25,28.9 50,14.43 51.754881,20.542822 75,28.9 69.226667,51.462298 75,57.7 50,72.17 25,57.7 Z" />
  <path
     style="fill: #ffffff;stroke-width:param(outline-width)1;stroke-linecap:round;stroke-linejoin:round;stop-color:#000000;stroke: #000000;stroke-opacity:1"
     d="m 49.570353,14.416875 c 0,0 1.38244,4.937287 3.554846,5.727252"
     id="path298" />
  <path
     style="fill: #ffffff;stroke: #000000;stroke-width:param(outline-width)1;stroke-linecap:round;stroke-linejoin:round;stroke-opacity:1;stop-color:#000000"
     d="m 49.767844,21.526567 c 0,0 9.282098,-5.727251 15.206841,-3.159863 5.924744,2.567389 13.231927,11.059521 13.231927,11.059521 0,0 3.357355,7.702167 1.579932,10.664538 -1.777423,2.962372 -9.874573,11.257013 -9.874573,11.257013 0,0 5.332269,2.369897 5.332269,6.122234 0,3.752338 -9.282098,11.257013 -25.476396,14.811859"
     id="path854" />
</svg>
