<?xml version="1.0" encoding="UTF-8" standalone="no"?>
<svg
   width="100"
   height="86.6"
   viewBox="0 0 100 86.6"
   version="1.1"
   id="forest-30"
   xmlns="http://www.w3.org/2000/svg"
   xmlns:svg="http://www.w3.org/2000/svg">
  <defs
     id="defs50137" />
  <path
     id="hexagone"
     style="fill: #ffffff;stroke: #ffffff;stroke-width:param(outline-width)0.3;stroke-linecap:round;stroke-linejoin:round;stop-color:#000000;fill-opacity:1"
     d="m 25,28.9 9.903838,-8.056137 8.49522,-1.081294 L 50,14.43 75,28.9 v 28.8 l -9.299237,2.917609 -4.756922,3.895227 -7.962932,2.613997 L 50,72.17 25,57.7 Z" />
  <path
     style="fill:none;stroke: #000000;stroke-width:param(outline-width)1px;stroke-linecap:butt;stroke-linejoin:round;stroke-opacity:1;fill-opacity:1"
     d="m 50,14.43 -6.600942,5.332569 c 0,0 -7.146002,-0.358146 -9.296886,1.363497 C 31.951288,22.847709 25,28.9 25,28.9"
     id="path50191" />
  <path
     style="fill: #ffffff;stroke: #000000;stroke-width:param(outline-width)1px;stroke-linecap:butt;stroke-linejoin:round;stroke-opacity:1;fill-opacity:1"
     d="m 25,28.9 -1.567268,8.016208"
     id="path50193" />
  <path
     style="fill:none;stroke: #000000;stroke-width:param(outline-width)1px;stroke-linecap:butt;stroke-linejoin:round;stroke-opacity:1;fill-opacity:1"
     d="m 75,57.7 c 0,0 -6.742262,1.780195 -8.65072,2.737545 -1.908458,0.95735 -5.405439,4.075291 -5.405439,4.075291 L 52.980909,67.126833 50,72.17 44.694296,72.292866"
     id="path50195" />
  <path
     style="fill:none;stroke: #000000;stroke-width:param(outline-width)1px;stroke-linecap:butt;stroke-linejoin:round;stroke-opacity:1"
     d="m 50,14.43 4.197898,-0.554266 c 0,0 5.861275,0.963971 6.470388,0.963971"
     id="path52054" />
</svg>
