<?xml version="1.0" encoding="UTF-8" standalone="no"?>
<svg
   width="100"
   height="86.6"
   viewBox="0 0 100 86.6"
   version="1.1"
   id="forest-1"
   xmlns="http://www.w3.org/2000/svg"
   xmlns:svg="http://www.w3.org/2000/svg">
  <defs
     id="defs8337" />
  <path
     id="hexagone"
     style="fill: #ffffff;fill-opacity:1;stroke: #ffffff;stroke-width:param(outline-width)0.3;stroke-linecap:round;stroke-linejoin:round;stop-color:#000000"
     d="M 25,28.9 50,14.43 65.19098,31.954763 71.061899,57.148146 50.408745,62.590138 25,57.7 27.315291,48.290622 Z" />
  <path
     style="fill: #ffffff;stroke: #000000;stroke-width:param(outline-width)1px;stroke-linecap:butt;stroke-linejoin:round;stroke-opacity:1;font-variation-settings:normal;opacity:1;vector-effect:none;fill-opacity:1;stroke-miterlimit:4;stroke-dasharray:none;stroke-dashoffset:0;-inkscape-stroke:none;stop-color:#000000;stop-opacity:1"
     d="m 45.360004,65.99382 -2.668916,18.667682 8.125487,0.06303 -0.40783,-22.134394 z"
     id="path1118" />
  <path
     style="fill: #ffffff;stroke: #000000;stroke-width:param(outline-width)1px;stroke-linecap:butt;stroke-linejoin:round;stroke-opacity:1"
     d="m 25,28.9 c 0,0 -3.938639,8.713541 -3.848002,12.163121 0.09064,3.449579 6.163293,7.227501 6.163293,7.227501 0,0 -3.980902,3.09005 -3.528279,7.578845 0.312096,3.095144 7.56849,8.441731 11.302849,10.019214 3.734359,1.577483 10.270143,0.105139 10.270143,0.105139 l 4.837701,2.20707 c 0,0 5.040307,-5.839051 8.229574,-6.449533 3.189268,-0.610482 9.06076,2.003197 12.044821,0.705797 2.984061,-1.2974 4.591846,-8.057748 5.928777,-18.136783 0.437789,-3.300466 -5.720367,-9.398692 -5.720367,-9.398692"
     id="path404" />
  <path
     style="fill: #ffffff;stroke: #000000;stroke-width:param(outline-width)1px;stroke-linecap:butt;stroke-linejoin:round;stroke-opacity:1"
     d="m 50,14.43 7.38001,7.400341 c 0,0 8.085259,-6.146189 15.742352,-2.109961 7.657094,4.036229 -4.786193,24.533248 -4.786193,24.533248"
     id="path952" />
</svg>
