<?xml version="1.0" encoding="UTF-8" standalone="no"?>
<svg
   width="100"
   height="86.6"
   viewBox="0 0 100 86.6"
   version="1.1"
   id="forest-32"
   xmlns="http://www.w3.org/2000/svg"
   xmlns:svg="http://www.w3.org/2000/svg">
  <defs
     id="defs13670" />
  <path
     id="hexagone"
     style="fill: #ffffff;fill-opacity:1;stroke: #ffffff;stroke-width:param(outline-width)0.3;stroke-linecap:round;stroke-linejoin:round;stop-color:#000000"
     d="M 35.413162,39.606813 49.80415,15.768562 66.830889,31.054971 75,57.7 50,72.17 30.773833,54.122378 Z" />
  <path
     style="fill: #ffffff;stroke: #000000;stroke-width:param(outline-width)1px;stroke-linecap:butt;stroke-linejoin:round;stroke-opacity:1"
     d="m 50,72.2 -7.786414,-6.274043 c 0,0 -3.868639,2.124167 -9.479872,1.160955 -5.611232,-0.963212 -12.425541,-13.622415 -9.65603,-17.815235 2.76951,-4.192819 8.984465,-9.658025 8.984465,-9.658025 0,0 -0.03771,-3.90356 1.556632,-12.202464 1.594339,-8.298904 12.079028,-7.750127 12.079028,-7.750127"
     id="path13865" />
  <path
     style="fill: #ffffff;stroke: #000000;stroke-width:param(outline-width)1px;stroke-linecap:butt;stroke-linejoin:round;stroke-opacity:1"
     d="m 59.975212,25.870335 c 0,0 10.987361,3.629734 12.500405,6.448191 1.513043,2.818457 3.904748,13.629123 3.904748,13.629123 0,0 -0.669272,10.9362 -1.380365,11.752351 0,0 -5.965331,3.803949 -8.946166,2.960708"
     id="path13869" />
  <path
     style="fill: #ffffff;stroke: #000000;stroke-width:param(outline-width)1px;stroke-linecap:butt;stroke-linejoin:round;stroke-opacity:1"
     d="m 41.482949,23.410113 c 0,0 1.430899,-7.375499 4.973975,-8.177806 C 50,14.43 57.253852,15.825501 58.905416,18.883161 c 1.651564,3.05766 6.716109,9.638307 4.805928,12.541649"
     id="path13867" />
</svg>
