<?xml version="1.0" encoding="UTF-8" standalone="no"?>
<svg
   width="100"
   height="86.6"
   viewBox="0 0 100 86.6"
   version="1.1"
   id="forest-44"
   xmlns="http://www.w3.org/2000/svg"
   xmlns:svg="http://www.w3.org/2000/svg">
  <defs
     id="defs9324" />
  <path
     id="hexagone"
     style="fill: #ffffff;fill-opacity:1;stroke: #ffffff;stroke-width:param(outline-width)0.3;stroke-linecap:round;stroke-linejoin:round;stop-color:#000000"
     d="M 25,28.9 43.737457,21.77809 50,14.43 60.51719,22.947467 75,28.9 V 57.7 L 50,72.17 42.860531,69.189859 39.25383,62.783298 31.787942,61.043842 25,57.7 Z" />
  <path
     style="fill: #ffffff;stroke: #000000;stroke-width:param(outline-width)1px;stroke-linecap:butt;stroke-linejoin:round;stroke-opacity:1"
     d="m 25,28.9 c 0,0 4.470088,-7.41659 7.904918,-9.360482 3.434831,-1.943893 10.832539,2.238572 10.832539,2.238572 0,0 -0.639103,-6.064208 6.262543,-7.34809 6.901646,-1.283882 12.416256,10.347457 12.416256,10.347457"
     id="path9378" />
  <path
     style="fill: #ffffff;stroke: #000000;stroke-width:param(outline-width)1px;stroke-linecap:butt;stroke-linejoin:round;stroke-opacity:1"
     d="M 55.51851,24.724738 C 56.486844,24.566729 67.35128,17.925159 70.52693,21.470487 73.702581,25.015815 75,28.9 75,28.9"
     id="path9380" />
  <path
     style="fill:none;stroke: #000000;stroke-width:param(outline-width)1px;stroke-linecap:butt;stroke-linejoin:round;stroke-opacity:1"
     d="m 25,57.7 c 0,0 6.84976,4.370069 11.626588,4.689926 4.776827,0.319857 6.233943,6.799933 6.233943,6.799933 L 50,72.2"
     id="path9382" />
</svg>
