<?xml version="1.0" encoding="UTF-8" standalone="no"?>
<svg
   width="100"
   height="86.6"
   viewBox="0 0 100 86.6"
   version="1.1"
   id="forest-5"
   xmlns="http://www.w3.org/2000/svg"
   xmlns:svg="http://www.w3.org/2000/svg">
  <defs
     id="defs18508" />
  <path
     id="hexagone"
     style="fill: #ffffff;stroke: #ffffff;stroke-width:param(outline-width)0.3;stroke-linecap:round;stroke-linejoin:round;stop-color:#000000;fill-opacity:1"
     d="M 25,28.9 50,14.43 69.793263,29.155794 53.50857,62.836727 48.044098,62.899699 25,57.7 Z" />
  <path
     style="fill: #ffffff;stroke: #000000;stroke-width:param(outline-width)1px;stroke-linecap:butt;stroke-linejoin:round;stroke-opacity:1"
     d="m 50,14.4 c 0,0 12.487583,0.874108 15.676976,3.192386 3.189392,2.318278 4.116287,11.563408 4.116287,11.563408 l 2.482672,1.259147 c 0,0 2.551787,3.22144 1.483982,7.554987 -1.067805,4.333547 -8.837021,12.078176 -8.837021,12.078176 l 6.508691,2.038948 c 0,0 -1.225496,4.046112 -5.175726,7.182569 -3.95023,3.136457 -15.075948,7.281267 -15.075948,7.281267"
     id="path18562" />
  <path
     style="fill: #ffffff;stroke: #000000;stroke-width:param(outline-width)1px;stroke-linecap:butt;stroke-linejoin:round;stroke-opacity:1"
     d="M 45.713148,60.681746 44.17439,85.101574 52.984485,84.912077 51.807771,62.94969"
     id="path18566" />
  <path
     style="fill: #ffffff;stroke: #000000;stroke-width:param(outline-width)1px;stroke-linecap:butt;stroke-linejoin:round;stroke-opacity:1"
     d="m 25,57.7 c 0,0 10.201678,8.069562 10.859102,8.658207 0.657424,0.588645 15.50239,-5.825088 15.50239,-5.825088"
     id="path18564" />
</svg>
