<?xml version="1.0" encoding="UTF-8" standalone="no"?>
<svg
   width="100"
   height="86.6"
   viewBox="0 0 100 86.6"
   version="1.1"
   id="forest-19"
   xmlns="http://www.w3.org/2000/svg"
   xmlns:svg="http://www.w3.org/2000/svg">
  <defs
     id="defs39569" />
  <path
     style="fill: #ffffff;stroke: #000000;stroke-width:param(outline-width)1px;stroke-linecap:butt;stroke-linejoin:round;stroke-opacity:1"
     d="m 54.016077,67.939499 c 0,0.56709 1.400702,17.225686 1.400702,17.225686 0,0 -8.292685,0.729825 -8.136709,0.21476 0.155975,-0.515066 0.590643,-17.647333 0.590643,-17.647333"
     id="path39627" />
  <path
     id="hexagone"
     style="fill: #ffffff;stroke: #ffffff;stroke-width:param(outline-width)0.3;stroke-linecap:round;stroke-linejoin:round;stop-color:#000000;fill-opacity:1"
     d="M 25,28.9 50,14.43 75,28.9 78.14714,44.677994 50,72.17 25,57.7 26.261223,48.960276 21.360182,39.494135 Z" />
  <path
     style="fill:none;stroke: #000000;stroke-width:param(outline-width)1px;stroke-linecap:butt;stroke-linejoin:round;stroke-opacity:1"
     d="m 25,28.87 c 0,0 -3.774296,8.856179 -3.771526,10.981447 0.0028,2.125268 5.032749,9.108829 5.032749,9.108829 L 25,57.7"
     id="path39623" />
  <path
     style="fill: #ffffff;stroke: #000000;stroke-width:param(outline-width)1px;stroke-linecap:butt;stroke-linejoin:round;stroke-opacity:1"
     d="m 75,28.9 3.14714,15.777994 c 0,0 -4.816893,8.018407 -5.873118,9.776601 -1.056225,1.758194 -2.640484,8.122202 -4.813624,9.861002 C 65.287258,66.054397 50,72.17 50,72.17"
     id="path39625" />
</svg>
