<?xml version="1.0" encoding="UTF-8" standalone="no"?>
<svg
   width="100"
   height="86.6"
   viewBox="0 0 100 86.6"
   version="1.1"
   id="forest-48"
   xmlns="http://www.w3.org/2000/svg"
   xmlns:svg="http://www.w3.org/2000/svg">
  <defs
     id="defs6202" />
  <path
     id="hexagone"
     style="fill: #ffffff;stroke: #ffffff;stroke-width:param(outline-width)0.3;stroke-linecap:round;stroke-linejoin:round;stop-color:#000000;fill-opacity:1"
     d="M 37.463802,39.937859 50.800189,29.758772 69.031703,35.162639 75,57.7 50,72.17 25,57.7 Z" />
  <path
     style="fill: #ffffff;stroke: #000000;stroke-width:param(outline-width)1px;stroke-linecap:butt;stroke-linejoin:round;stroke-opacity:1"
     d="m 25,57.7 c 0,0 2.250503,-6.502639 2.862551,-6.745693 0.612047,-0.243055 -5.567546,-1.0343 -5.464633,-8.038136 0.102913,-7.003836 10.692037,-14.398865 13.396676,-13.826561 2.704638,0.572303 3.1023,1.704548 3.1023,1.704548 0,0 0.62218,-9.020378 5.488549,-9.670401 4.866369,-0.650023 21.159666,11.90314 21.159666,11.90314"
     id="path6317" />
  <path
     style="fill: #ffffff;stroke: #000000;stroke-width:param(outline-width)1px;stroke-linecap:butt;stroke-linejoin:round;stroke-opacity:1"
     d="m 56.074989,32.146952 c 0,0 7.626661,-5.478921 14.0401,-1.113591 C 76.528527,35.398691 79.936248,54.937323 75,57.7"
     id="path6450" />
</svg>
