<?xml version="1.0" encoding="UTF-8" standalone="no"?>
<svg
   width="100"
   height="86.6"
   viewBox="0 0 100 86.6"
   version="1.1"
   id="forest-35"
   xmlns="http://www.w3.org/2000/svg"
   xmlns:svg="http://www.w3.org/2000/svg">
  <defs
     id="defs52214" />
  <path
     id="hexagone"
     style="fill: #ffffff;stroke: #ffffff;stroke-width:param(outline-width)0.3;stroke-linecap:round;stroke-linejoin:round;stop-color:#000000;fill-opacity:1"
     d="M 25,28.9 50,14.43 75,28.9 c 0,0 -3.419767,17.361776 -2.748797,22.236075 C 72.922173,56.010374 75,57.7 75,57.7 L 50,72.17 c 0,0 -2.537394,-4.552563 -6.598606,-7.3565 C 39.340182,62.009563 33.207108,63.317175 28.436466,61.170344 28.354032,59.915119 28.563296,60.714632 27.750482,53.19445 27.442131,50.341575 22.557683,47.82089 22.27558,43.956183 22.053761,40.917348 25,28.9 25,28.9 Z" />
  <path
     style="fill:none;stroke: #000000;stroke-width:param(outline-width)1px;stroke-linecap:butt;stroke-linejoin:round;stroke-opacity:1"
     d="m 25,28.9 c 0,0 -2.903668,14.429421 -2.994883,15.010239 -0.09121,0.580818 5.485697,9.449141 5.485697,9.449141 l 0.945652,7.810964 c 0,0 3.347725,1.942445 9.003509,1.928592 C 43.095759,63.085083 50,72.2 50,72.2"
     id="path52282" />
  <path
     style="fill:none;stroke: #000000;stroke-width:param(outline-width)1px;stroke-linecap:butt;stroke-linejoin:round;stroke-opacity:1"
     d="m 75,28.9 -1.469324,11.061443 c 0,0 -1.781662,15.977402 1.469324,17.738557"
     id="path52284" />
  <path
     style="fill:none;stroke: #000000;stroke-width:param(outline-width)1px;stroke-linecap:butt;stroke-linejoin:round;stroke-opacity:1"
     d="M 25,28.87 24.620486,26.296821"
     id="path52286" />
</svg>
