<?xml version="1.0" encoding="UTF-8" standalone="no"?>
<svg
   width="100"
   height="86.6"
   viewBox="0 0 100 86.6"
   version="1.1"
   id="forest-16"
   xmlns="http://www.w3.org/2000/svg"
   xmlns:svg="http://www.w3.org/2000/svg">
  <defs
     id="defs5312" />
  <path
     id="hexagone"
     style="fill:#f6eeee;stroke: #ffffff;stroke-width:param(outline-width)0.3;stroke-linecap:round;stroke-linejoin:round;stop-color:#000000"
     d="m 31.628463,36.255325 c 1.777845,-2.399968 26.370157,4.087884 28.908069,5.859248 L 60.086302,56.697247 50,72.17 25,57.7 Z" />
  <path
     style="fill: #ffffff;stroke: #000000;stroke-width:param(outline-width)1px;stroke-linecap:butt;stroke-linejoin:round;stroke-opacity:1"
     d="m 25,57.73 c 0,0 -2.393443,-9.62664 -3.216752,-11.336464 -0.82331,-1.709824 5.251991,-6.734455 5.251991,-6.734455 0,0 -4.2997,-4.927516 -2.035239,-10.759081 2.264461,-5.831565 17.43187,-8.165298 17.43187,-8.165298 0,0 10.23513,-2.875364 13.598496,-2.232851 3.363366,0.642514 3.648496,8.1083 3.648496,8.1083 0,0 4.064268,-3.417336 9.39356,-1.6305 5.329292,1.786836 2.814491,12.952341 2.814491,12.952341 0,0 4.820789,4.182202 5.842183,10.533018 1.021393,6.350817 -8.934213,12.919543 -12.27123,12.812232 -3.337017,-0.107311 -8.457882,9.926565 -8.457882,9.926565 L 50,72.2"
     id="path5427" />
</svg>
