<?xml version="1.0" encoding="UTF-8" standalone="no"?>
<svg
   width="100"
   height="86.6"
   viewBox="0 0 100 86.6"
   version="1.1"
   id="forest-36"
   xmlns="http://www.w3.org/2000/svg"
   xmlns:svg="http://www.w3.org/2000/svg">
  <defs
     id="defs28075" />
  <path
     id="hexagone"
     style="fill: #ffffff;fill-opacity:1;stroke: #ffffff;stroke-width:param(outline-width)0.3;stroke-linecap:round;stroke-linejoin:round;stop-color:#000000"
     d="M 25,28.9 50.856835,22.381591 70.086201,33.944367 75,57.7 50,72.17 25,57.7 Z" />
  <path
     style="fill: #ffffff;stroke: #000000;stroke-width:param(outline-width)1px;stroke-linecap:butt;stroke-linejoin:round;stroke-opacity:1;fill-opacity:1"
     d="M 25,28.9 36.417841,17.619391 c 0,0 15.082439,-4.257488 19.165498,3.879663"
     id="path28129" />
  <path
     style="fill: #ffffff;stroke: #000000;stroke-width:param(outline-width)1px;stroke-linecap:butt;stroke-linejoin:round;stroke-opacity:1;fill-opacity:1"
     d="m 50.856835,22.381591 c 0,0 7.191435,-3.543385 9.187654,-3.113889 1.996218,0.429496 7.441248,0.54455 11.534463,5.909489 3.259306,4.271942 6.442606,11.445401 6.442606,11.445401 L 72.582507,46.559496 75,57.7"
     id="path28131" />
  <path
     style="fill: #ffffff;stroke: #000000;stroke-width:param(outline-width)1px;stroke-linecap:butt;stroke-linejoin:round;stroke-opacity:1;fill-opacity:1"
     d="m 25,57.7 c 0,0 3.79308,5.267535 7.743473,7.522442 3.950394,2.254907 14.682427,4.295225 14.682427,4.295225 L 50,72.2"
     id="path28133" />
</svg>
