<?xml version="1.0" encoding="UTF-8" standalone="no"?>
<svg
   width="100"
   height="86.6"
   viewBox="0 0 100 86.6"
   version="1.1"
   id="forest-15"
   xmlns="http://www.w3.org/2000/svg"
   xmlns:svg="http://www.w3.org/2000/svg">
  <defs
     id="defs16" />
  <path
     id="hexagone"
     style="fill: #ffffff;fill-opacity:1;stroke: #ffffff;stroke-width:param(outline-width)0.3;stroke-linecap:round;stroke-linejoin:round;stop-color:#000000"
     d="M 25,28.9 50,14.43 75,28.9 V 57.7 L 49.85918,70.461145 25,57.7 Z" />
  <path
     style="fill: #ffffff;stroke: #000000;stroke-width:param(outline-width)1;stroke-linecap:round;stroke-linejoin:round;stop-color:#000000"
     d="m 47.002964,65.863397 -0.69122,19.452907 h 6.714709 l -0.69122,-21.032839 z"
     id="path301" />
  <path
     style="fill: #ffffff;stroke: #000000;stroke-width:param(outline-width)1;stroke-linecap:round;stroke-linejoin:round;stop-color:#000000"
     d="m 24.99691,57.674434 c 0,0 -0.558591,2.094713 1.955065,6.423787 2.513656,4.329073 12.428631,4.049778 12.428631,4.049778 0,0 0.977533,1.396476 3.491189,2.234361 2.513655,0.837885 6.703082,-4.049779 6.703082,-4.049779 0,0 3.351541,4.049779 6.982377,3.211894 3.630836,-0.837885 10.19427,0.418942 11.87004,-0.977533 1.675771,-1.396475 6.563435,-11.032156 6.563435,-11.032156"
     id="path299" />
</svg>
