<?xml version="1.0" encoding="UTF-8" standalone="no"?>
<svg
   width="100"
   height="86.6"
   viewBox="0 0 100 86.6"
   version="1.1"
   id="forest-8"
   xmlns="http://www.w3.org/2000/svg"
   xmlns:svg="http://www.w3.org/2000/svg">
  <defs
     id="defs10640" />
  <path
     id="hexagone"
     style="fill: #ffffff;fill-opacity:1;stroke: #ffffff;stroke-width:param(outline-width)0.3;stroke-linecap:round;stroke-linejoin:round;stop-color:#000000"
     d="M 38.030155,40.701835 62.499215,24.812109 75.187591,34.111167 75,57.7 55.250357,65.174426 50,72.17 35.397377,54.930591 Z" />
  <path
     style="fill: #ffffff;stroke: #000000;stroke-width:param(outline-width)1px;stroke-linecap:butt;stroke-linejoin:round;stroke-opacity:1"
     d="M 50,72.17 39.914573,64.565024 c 0,0 -4.71129,3.032533 -7.669424,0.05721 -2.958133,-2.975321 -2.993364,-15.109267 3.310667,-16.891368"
     id="path10774" />
  <path
     style="fill: #ffffff;stroke: #000000;stroke-width:param(outline-width)1px;stroke-linecap:butt;stroke-linejoin:round;stroke-opacity:1"
     d="m 33.036686,53.11907 c 0,0 -10.383328,-6.834516 -8.65802,-13.551738 1.725308,-6.717222 11.602995,-14.113116 15.724219,-12.967405 4.121224,1.145711 2.410929,2.052693 2.410929,2.052693 0,0 -2.750717,-6.788784 1.758174,-9.282764 4.50889,-2.493979 19.08732,0.864403 18.227227,5.442253"
     id="path10776" />
  <path
     style="fill: #ffffff;stroke: #000000;stroke-width:param(outline-width)1px;stroke-linecap:butt;stroke-linejoin:round;stroke-opacity:1"
     d="m 56.448004,24.3211 c 6.444628,-0.659055 17.580446,5.68032 18.739587,9.790067"
     id="path10778" />
  <path
     style="fill: #ffffff;stroke: #000000;stroke-width:param(outline-width)1px;stroke-linecap:butt;stroke-linejoin:round;stroke-opacity:1"
     d="m 47.614808,66.409839 -1.567925,18.355268 9.844281,-0.01155 c 0,0 -1.931113,-18.778801 -2.384984,-19.008219"
     id="path10952" />
  <path
     style="fill: #ffffff;stroke: #000000;stroke-width:param(outline-width)1px;stroke-linecap:butt;stroke-linejoin:round;stroke-opacity:1"
     d="m 75,57.7 c 0,0 -2.157342,6.629214 -5.257539,8.032438 -3.100198,1.403224 -19.850117,-0.163927 -19.850117,-0.163927"
     id="path10950" />
</svg>
