<?xml version="1.0" encoding="UTF-8" standalone="no"?>
<svg
   width="100"
   height="86.6"
   viewBox="0 0 100 86.6"
   version="1.1"
   id="forest-25"
   xmlns="http://www.w3.org/2000/svg"
   xmlns:svg="http://www.w3.org/2000/svg">
  <defs
     id="defs43668" />
  <path
     id="hexagone"
     style="fill: #ffffff;fill-opacity:1;stroke: #ffffff;stroke-width:param(outline-width)0.3;stroke-linecap:round;stroke-linejoin:round;stop-color:#000000"
     d="M 25,28.9 50,14.43 75,28.9 V 57.7 L 65.209526,65.528073 54.257802,67.86514 50,72.17 25,57.7 Z" />
  <path
     style="fill: #ffffff;stroke: #000000;stroke-width:param(outline-width)1px;stroke-linecap:butt;stroke-linejoin:round;stroke-opacity:1;fill-opacity:1"
     d="m 50,14.4 c 0,0 8.796926,-0.05768 12.265448,1.698763 C 65.733971,17.855208 75,28.9 75,28.9 l 0.512112,2.598387"
     id="path43722" />
  <path
     style="fill: #ffffff;stroke: #000000;stroke-width:param(outline-width)1px;stroke-linecap:butt;stroke-linejoin:round;stroke-opacity:1;fill-opacity:1"
     d="M 30.062008,28.377367 25,28.9 c 0,0 -2.463938,6.116831 -3.646016,9.096874 -1.182078,2.980042 3.950269,13.166474 3.950269,13.166474 C 25.304253,51.163348 25,57.7 25,57.7"
     id="path43724" />
  <path
     style="fill:none;stroke: #000000;stroke-width:param(outline-width)1px;stroke-linecap:butt;stroke-linejoin:round;stroke-opacity:1;fill-opacity:1"
     d="M 75,57.7 65.209526,65.528073 54.257802,67.86514 50,72.17"
     id="path43726" />
</svg>
